# xmcd
#
# Track frame offsets:
#	150
#	15488
#	28921
#	43734
#	57248
#	71935
#	86852
#	100338
#	115609
#	131717
#
# Disc length: 1964 seconds
#
# Revision: 0
# Processed by: cddbd v1.5.2PL0 Copyright (c) Steve Scherf et al.
# Submitted via: EasyCDDAExtractor 16.0.6.1
#
DISCID=8c07aa0a
DTITLE=Συλλογικός δίσκος - Λαϊκό τραγούδι 1954-1967, 1960-5
DYEAR=2008
DGENRE=Λαϊκή
TTITLE0=Βλάσσης Βασίλης-Καλδάρας Απόστολος - Γυάλινος κόσμος [Απόστολος Καλδάρ
TTITLE0=ας-Ευτ. Παπαγιαννοπούλου]
TTITLE1=Ζαγοραίος Σπύρος - Παλαμάκια, παλαμάκια [Θεόδωρος Δερβενιώτης-Κώστας Β
TTITLE1=ίρβος]
TTITLE2=Αγγελόπουλος Μανώλης-Γκρέϋ Καίτη - Ανέβα στο τραπέζι μου [Μπάμπης Μπακ
TTITLE2=άλης-Κώστας Βίρβος]
TTITLE3=Μπιθικώτσης Γρηγόρης-Λύδια Γ.-Ατταλίδης Σ. - Θα σε πάω στο φεγγάρι [Μπ
TTITLE3=άμπης Μπακάλης-Δημ. Γκούτης]
TTITLE4=Περπινιάδης Βαγγέλης - Αχ αυτή η γειτόνισσά σου [Βαγγέλης Περπινιάδης]
TTITLE5=Αγγελόπουλος Μανώλης-Λύδια Γιώτα - Μανταλένα [Στράτος Ατταλίδης-Κώστας
TTITLE5=Βίρβος]
TTITLE6=Διονυσίου Στράτος - Ο τσακιτζής [Μπάμπης Μπακάλης-Δημήτρης Γκούτης]
TTITLE7=Μπιθικώτσης Γρηγόρης-Γκρέζη Νίτσα - Αθήνα ντερμπεντέρισσα [Μπάμπης Μπα
TTITLE7=κάλης-Κώστας Βίρβος]
TTITLE8=Γαβαλάς Πάνος - Ζήλια, μίσος, αγάπη [Πάνος Γαβαλάς-Νίκος Δαλέζιος]
TTITLE9=Μπιθικώτσης Γρηγόρης-Μητσάκης Γιώργος - Τα παιδιά της ρόδας [Γιώργος Μ
TTITLE9=ητσάκης]
EXTD=
EXTT0=
EXTT1=
EXTT2=
EXTT3=
EXTT4=
EXTT5=
EXTT6=
EXTT7=
EXTT8=
EXTT9=
PLAYORDER=
